# xmcd
#
# Track frame offsets: 
#        150
#        18132
#        34125
#        52109
#
# Disc length: 713 seconds
#
# Revision: 0
# Processed by: cddbd v1.5.2PL0 Copyright (c) Steve Scherf et al.
# Submitted via: ExactAudioCopy v0.95b4
#
DISCID=2a02c704
DTITLE=Nina Sky - Get Your Clothes Off
DYEAR=2007
DGENRE=R&B
TTITLE0=Get Your Clothes Off (Radio ft. Daytona)
TTITLE1=Get Your Clothes Off
TTITLE2=Get Your Clothes Off (INST)
TTITLE3=Get Your Clothes Off (Call Out Hook)
EXTD=
EXTT0=
EXTT1=
EXTT2=
EXTT3=
PLAYORDER=
